PathFileType	4	(X/Y/Z)	C:\Users\WrightLab\Desktop\Jo\P2_Trial30.trc
DataRate	CameraRate	NumFrames	NumMarkers	Units	OrigDataRate	OrigDataStartFrame	OrigNumFrames
100.00	100.00	       10	19	mm	100.00	370	       591
Frame#	Time	Headset_Front			Headset_Back			Headset_Left			Headset_Right			Left_Shoulder			Right_Shoulder			Sternum			C7			Left Elbow			Right Elbow			Left Wrist			Right Wrist			Left ASIS			Right ASIS			S2			Left Knee			Right Knee			Left Ankle			Right Ankle			
		X1	Y1	Z1	X2	Y2	Z2	X3	Y3	Z3	X4	Y4	Z4	X5	Y5	Z5	X6	Y6	Z6	X7	Y7	Z7	X8	Y8	Z8	X9	Y9	Z9	X10	Y10	Z10	X11	Y11	Z11	X12	Y12	Z12	X13	Y13	Z13	X14	Y14	Z14	X15	Y15	Z15	X16	Y16	Z16	X17	Y17	Z17	X18	Y18	Z18	X19	Y19	Z19	

370	3.690	73.64699	1498.13416	1168.20911	20.99513	1720.63635	962.33893				-48.02446	1572.41187	1121.11499	157.09959	1480.62122	870.43378	-127.47530	1471.16431	1020.28339	46.76015	1354.24634	1001.54565	-46.40305	1464.00916	855.14349	262.05402	1197.98242	752.42218	-254.80191	1157.19312	1024.70642	372.18582	1192.74805	894.68561	-198.55176	977.87958	1151.52185	120.33963	1071.17822	1008.93768	-0.45254	1042.42566	1061.73279	-19.17238	971.93878	791.96326	332.26065	541.23987	1021.94086	-93.49902	556.38348	1012.37109	271.15103	258.08920	829.96619	26.49483	134.87462	1008.05908	
371	3.700	74.86147	1498.36499	1177.01746	23.10516	1720.72522	971.15613				-46.72596	1572.41052	1129.13391	160.33398	1481.13672	880.21039	-124.84011	1471.14807	1027.23962	49.08273	1354.55139	1009.92145	-42.66181	1464.26733	862.80206	267.64398	1199.54700	760.96155	-251.93163	1157.11316	1033.57874	376.03665	1193.15186	903.04346	-195.03075	980.22382	1163.11792	122.26033	1070.51196	1018.11798	0.89327	1042.31177	1068.90247	-12.94498	972.45850	798.87775	335.44257	546.98163	1043.10864	-94.22915	555.08636	1009.96417	289.34418	255.11383	855.56506	21.49360	133.10634	1009.69061	
372	3.710	75.68384	1498.55298	1186.86560	25.73081	1720.71350	980.00562				-46.00731	1572.40369	1137.36328	164.06822	1481.16772	889.85474	-122.66624	1471.15784	1034.52844	52.11697	1354.38013	1017.51746	-39.20685	1464.37036	870.61646	271.91711	1199.86279	771.08960	-249.87535	1156.95142	1042.87537	379.54510	1194.17139	913.72845	-191.81114	982.49091	1174.60339	124.77785	1070.30664	1027.21423	2.23762	1042.05298	1076.34338	-6.45823	973.10107	805.87872	338.15771	552.11993	1062.99829	-95.94046	554.32025	1006.14655	307.50360	252.45627	880.67938	15.90893	131.00175	1010.86346	
373	3.720	76.46471	1497.80005	1194.99231	28.34566	1720.51843	988.63855				-44.65283	1572.02197	1145.52637	167.74255	1482.14453	898.95795	-119.84523	1471.24878	1041.90820	54.40077	1354.30859	1026.01526	-35.58575	1464.50342	878.29950	274.84778	1200.26465	780.82971	-247.81197	1156.93127	1051.83508	382.81976	1193.27661	922.22186	-189.23375	983.81116	1185.38635	127.17580	1070.60693	1037.70984	4.21246	1041.70129	1083.60876	-0.63632	973.27802	813.00012	340.17154	556.44635	1081.57275	-96.26749	553.30225	1002.56989	325.04691	249.30743	905.63898	11.11764	129.88737	1011.95892	
374	3.730	77.13535	1497.18420	1204.10840	30.51034	1720.46863	997.90656				-44.44995	1571.78870	1154.07703	171.23569	1482.31384	908.64014	-117.70859	1471.14392	1049.47864	56.54299	1353.73657	1034.71777	-32.44277	1464.83667	886.72754	278.52350	1200.27856	789.94165	-245.60880	1156.59924	1060.97693	387.77173	1194.14099	934.09656	-186.89906	985.48047	1195.83704	128.65736	1070.14551	1046.31580	5.59941	1041.33716	1091.08252	6.25414	973.53778	819.88965	341.02087	560.30994	1098.93213	-96.77830	552.76306	999.49664	341.55801	245.60109	931.50348	5.62680	128.40157	1012.60883	
375	3.740	77.14210	1496.44519	1212.82996	32.22401	1720.43225	1007.10602				-43.30483	1571.06445	1162.26770	173.74756	1480.84265	918.73145	-115.15488	1471.14941	1057.45032	59.37860	1353.20886	1043.13611	-29.03549	1465.03406	894.73792	283.21957	1199.94556	801.24628	-243.07324	1156.57520	1069.56531	388.95718	1193.86389	942.19116	-184.15402	986.99243	1205.92029	130.80797	1070.77979	1056.31165	6.57932	1041.43408	1097.97009	13.37677	973.12659	827.60278	341.90717	563.33722	1114.74341	-98.03930	552.74115	996.41821	357.85281	240.28526	957.21936	1.56210	127.01521	1013.15009	
376	3.750	78.01417	1496.07214	1222.87036	33.74609	1720.27771	1016.62573				-42.12651	1570.02698	1170.50879	177.02486	1480.69568	928.68347	-112.88680	1471.08899	1065.45337	61.59782	1352.76624	1051.69885	-25.60579	1465.02185	902.92877	286.56503	1199.98425	811.77301	-241.36696	1156.74573	1077.40649	394.15317	1194.51855	953.73523	-182.29338	988.30646	1215.79358	132.21541	1070.25073	1066.19006	7.87612	1041.44421	1105.59924	19.47760	973.24695	834.59241	341.71323	564.85925	1130.29846	-97.60867	552.36676	994.02179	373.89160	235.81323	982.37250	-3.64830	127.15997	1013.38531	
377	3.760	78.40455	1494.92175	1232.55054	37.10317	1719.87830	1026.19775				-41.23840	1568.97876	1178.80737	180.15163	1480.80408	938.58392	-110.23840	1470.90381	1073.18372	63.71223	1352.13879	1060.92590	-22.43293	1465.03503	911.51929	288.89224	1199.06470	821.61713	-238.43855	1155.62805	1084.90283	398.39365	1194.58472	964.52020	-179.96912	989.09845	1224.06104	133.47028	1070.39392	1075.31396	9.02829	1041.12280	1113.14417	26.12357	973.14020	842.19263	341.87454	566.37579	1144.28125	-96.70654	551.88696	991.94647	388.78622	231.17500	1007.06891	-6.05071	126.34540	1012.73132	
378	3.770	78.82768	1493.69507	1240.67712	39.14049	1719.24854	1035.96484				-40.77209	1568.02393	1187.36206	183.38463	1480.29797	948.31598	-108.03964	1471.06787	1081.58142	65.80917	1351.19250	1068.80347	-18.99510	1464.75122	919.86377	293.04294	1198.27502	833.00836	-236.60081	1156.11902	1090.66418	399.64539	1194.23621	975.08636	-178.36951	990.26117	1232.94763	135.38557	1070.72266	1085.37646	10.43337	1040.63489	1120.36316	32.59101	972.55408	850.08148	342.23636	565.81293	1157.11304	-94.58397	551.36237	990.61017	404.77954	226.90138	1032.36658	-9.79634	125.50760	1011.17639	
379	3.780	79.09462	1492.52466	1251.05591	41.41216	1718.76172	1045.79749				-39.55331	1566.83032	1195.93250	185.91934	1479.90405	958.84167	-105.71478	1470.81970	1089.58252	68.22114	1350.57556	1078.12598	-16.19328	1464.71973	929.01166	296.07196	1197.83948	843.58221	-233.97060	1155.99304	1097.45618	403.88599	1194.11194	985.59259	-176.99030	991.66370	1241.02478	136.59702	1070.67224	1095.06897	11.52671	1040.20654	1127.36829	38.94040	972.62573	858.28339	339.90436	562.25177	1167.78064	-92.79361	550.82623	990.04156	421.01685	223.36131	1058.47803	-10.41634	125.15844	1008.89008	
